<svg xmlns="http://www.w3.org/2000/svg" width="200" height="200" viewBox="0 0 200 200">
  <g>
    <g>
      <path d="M 102.45703 57.017578 C 71.87684 57.100937 47.077976 81.96657 47.078125 112.54688 A 2.50025 2.50025 0 0 0 47.078125 112.54883 C 47.078361 113.00698 47.084128 113.46582 47.095703 113.92383 A 2.50025 2.50025 0 0 0 49.595703 116.35938 L 155.62305 116.35938 A 2.50025 2.50025 0 0 0 158.12109 113.92383 C 158.1327 113.46582 158.13841 113.00698 158.13867 112.54883 A 2.50025 2.50025 0 0 0 158.13867 112.54688 C 158.13871 81.908436 133.24952 57.01861 102.61133 57.017578 C 102.56216 57.017511 102.51402 57.017515 102.46484 57.017578 A 2.50025 2.50025 0 0 0 102.45703 57.017578 z M 102.46484 62.017578 A 2.50025 2.50025 0 0 0 102.4668 62.017578 L 102.4707 62.017578 C 102.51535 62.017521 102.56083 62.017517 102.60547 62.017578 A 2.50025 2.50025 0 0 0 102.60938 62.017578 C 130.14519 62.017545 152.44224 83.978276 153.07812 111.35938 L 52.138672 111.35938 C 52.773236 84.033572 74.985808 62.095624 102.46484 62.017578 z " />
      <path fill="#c1dcdb" d="M 102.46414,59.517102 C 82.969219,59.336123 64.055539,71.020756 55.359462,88.44506 c -4.008303,7.812664 -5.99494,16.63956 -5.764362,25.41504 35.34244,0 70.68488,0 106.02732,0 0.7198,-19.527544 -10.49329,-38.794471 -27.73605,-47.942512 -7.75798,-4.230026 -16.58814,-6.439254 -25.42223,-6.400486 z" />
    </g>
    <g>
      <path d="m 49.802734,121.38281 c -1.366719,-7e-5 -2.474682,1.10789 -2.474609,2.47461 v 77.4043 c 0.001,1.36596 1.108651,2.47273 2.474609,2.47266 H 156.07812 c 1.3652,-10e-4 2.47166,-1.10746 2.47266,-2.47266 v -77.4043 c 7e-5,-1.36596 -1.1067,-2.47361 -2.47266,-2.47461 z m 2.472657,4.94727 H 153.60352 v 72.45703 H 52.275391 Z" />
      <path fill="#c1dcdb" d="M 49.802055,123.85645 H 156.07729 v 77.40431 H 49.802055 Z" />
    </g>
    <path d="m 87.109375,84.275391 c -3.02125,0 -5.5,2.478749 -5.5,5.5 0,3.02125 2.47875,5.5 5.5,5.5 3.02125,0 5.5,-2.47875 5.5,-5.5 0,-3.021251 -2.47875,-5.5 -5.5,-5.5 z m 0,2.753906 c 1.532359,0 2.744141,1.213734 2.744141,2.746094 0,1.532359 -1.211782,2.74414 -2.744141,2.74414 -1.532359,0 -2.746094,-1.211781 -2.746094,-2.74414 0,-1.53236 1.213735,-2.746094 2.746094,-2.746094 z" />
    <path d="M 82.083984 32.990234 L 79.648438 33.953125 L 89.916016 59.908203 L 92.349609 58.945312 L 82.083984 32.990234 z " />
    <path d="M 121.37109 31.9375 L 110.96094 58.255859 L 113.42969 59.232422 L 123.83984 32.914062 L 121.37109 31.9375 z " />
    <g>
      <path d="M 13.605469 114.09961 C 11.225299 114.09266 8.9084459 114.99142 6.953125 116.5293 A 2.50025 2.50025 0 0 0 6.1367188 117.04492 C 1.9820439 120.98762 1.9596466 127.64173 6.0898438 131.60938 A 2.50025 2.50025 0 0 0 6.0917969 131.60938 C 6.5232792 132.02342 7.0196235 132.36204 7.515625 132.69727 L 26.21875 150.66797 A 2.50025 2.50025 0 0 0 27.269531 151.27148 C 31.413186 154.41656 37.319096 154.31504 41.169922 150.66016 C 45.324584 146.71746 45.346989 140.06335 41.216797 136.0957 C 40.557553 135.46264 39.759038 135.00782 38.958984 134.56445 L 22.179688 118.44336 C 21.831602 117.9703 21.481383 117.49828 21.056641 117.08984 A 2.50025 2.50025 0 0 0 21.054688 117.08984 C 18.989728 115.10588 16.299547 114.10748 13.605469 114.09961 z M 13.589844 119.11523 C 15.045445 119.11946 16.500411 119.64674 17.591797 120.69531 C 17.883104 120.97573 18.139516 121.2849 18.355469 121.61523 A 2.50025 2.50025 0 0 0 18.714844 122.05078 L 35.501953 138.17773 A 2.50025 2.50025 0 0 0 36.195312 138.64844 C 36.778992 138.915 37.306417 139.27341 37.753906 139.70312 C 39.936836 141.80014 39.925646 144.94817 37.728516 147.0332 C 35.534599 149.11549 31.908766 149.10811 29.724609 147.01758 A 2.50025 2.50025 0 0 0 26.275391 147.00977 L 27.962891 145.41016 L 10.976562 129.08984 A 2.50025 2.50025 0 0 0 10.533203 128.75195 C 10.176467 128.53709 9.8483678 128.28544 9.5546875 128.00391 L 9.5527344 128.00195 C 7.3719022 125.90493 7.3816906 122.75624 9.578125 120.67188 C 10.676606 119.62928 12.134243 119.11101 13.589844 119.11523 z " />
      <path fill="#c1dcdb" d="m 7.8576311,118.8583 c -3.1759061,3.01387 -3.1915859,7.91551 -0.035021,10.94785 0.4295731,0.41221 0.9064231,0.77689 1.4215251,1.08714 l 18.7074768,17.97253 0.04376,-0.0415 c 3.15812,3.02275 8.283084,3.03304 11.454492,0.023 3.175896,-3.01387 3.191571,-7.91551 0.03501,-10.94784 -0.653444,-0.6275 -1.414728,-1.14336 -2.250763,-1.52518 L 20.447398,120.247 c -0.32062,-0.49044 -0.697771,-0.94504 -1.124398,-1.35529 -3.156346,-3.03254 -8.289698,-3.0475 -11.4653649,-0.0334 z" />
    </g>
    <g>
      <path d="M 171.77148 135.3418 C 170.41341 135.42963 169.0528 135.79185 167.76953 136.45703 C 162.6295 139.12088 160.59337 145.53312 163.14453 150.76562 A 2.50025 2.50025 0 0 0 163.14453 150.76758 C 163.67538 151.85587 164.38606 152.84403 165.24609 153.69141 L 164.75195 153.00781 L 175.22852 174.49414 C 175.39952 175.0784 175.57528 175.66165 175.8418 176.20898 A 2.50025 2.50025 0 0 0 175.8418 176.21094 C 178.23599 181.12237 183.9699 183.19327 188.91797 181.24609 A 2.50025 2.50025 0 0 0 189.90234 180.97266 C 195.04239 178.30882 197.07851 171.89657 194.52734 166.66406 A 2.50025 2.50025 0 0 0 194.52539 166.66406 C 194.25778 166.11595 193.90643 165.61863 193.55078 165.125 L 181.87695 141.17773 A 2.50025 2.50025 0 0 0 181.07812 140.23828 C 178.98965 137.00758 175.45085 135.10383 171.77148 135.3418 z M 172.14648 140.30078 C 174.24074 140.14287 176.2863 141.27126 177.33008 143.40234 A 2.50025 2.50025 0 0 0 177.625 143.86523 L 189.05664 167.31641 A 2.50025 2.50025 0 0 0 189.35352 167.78516 C 189.61707 168.1134 189.84585 168.47369 190.0332 168.85742 C 191.42054 171.70525 190.29831 175.13561 187.60156 176.5332 C 184.90435 177.93129 181.7244 176.86782 180.33594 174.01953 L 180.33789 174.01953 C 180.15202 173.63782 180.00587 173.23539 179.90625 172.81836 A 2.50025 2.50025 0 0 0 179.72266 172.30273 L 169.24609 150.81641 A 2.50025 2.50025 0 0 0 168.75391 150.13086 C 168.30137 149.68498 167.92356 149.15826 167.63867 148.57422 C 166.25002 145.72605 167.37302 142.29437 170.07031 140.89648 C 170.74368 140.54745 171.4484 140.35342 172.14648 140.30078 z " />
      <path fill="#c1dcdb" d="m 188.75119,178.75332 c 3.91868,-2.03086 5.49853,-6.95278 3.52862,-10.99312 -0.26823,-0.54939 -0.59565,-1.06587 -0.97606,-1.53966 l -11.67439,-23.94653 -0.054,0.0279 c -1.97443,-4.03119 -6.74166,-5.65281 -10.65492,-3.62437 -3.91866,2.03087 -5.49851,6.95277 -3.5286,10.99311 0.40787,0.83616 0.95177,1.59403 1.60805,2.24066 l 10.47574,21.48785 c 0.14183,0.59376 0.34773,1.16928 0.61384,1.71577 1.96964,4.04049 6.74317,5.66946 10.6617,3.6383 z" />
    </g>
    <path d="m 118.10938,84.275391 c -3.02126,0 -5.5,2.478749 -5.5,5.5 0,3.02125 2.47874,5.5 5.5,5.5 3.02125,0 5.5,-2.47875 5.5,-5.5 0,-3.021251 -2.47875,-5.5 -5.5,-5.5 z m 0,2.753906 c 1.53235,0 2.74414,1.213734 2.74414,2.746094 0,1.532359 -1.21179,2.74414 -2.74414,2.74414 -1.53236,0 -2.7461,-1.211781 -2.7461,-2.74414 0,-1.53236 1.21374,-2.746094 2.7461,-2.746094 z" />
    <g transform="matrix(0.37589343,0,0,0.37589343,66.568828,123.327)">
      <path d="M 25.000024,33.983972 V 53.983783 H 88.619395 L 51.56636,144.95704 28.715044,126.06052 c -4.215592,5.09771 -8.431183,10.19542 -12.646774,15.29312 14.560523,12.04027 29.121047,24.08053 43.68157,36.1208 16.765902,-41.16356 33.531802,-82.327105 50.2977,-123.490657 h 64.95263 V 33.983972 Z" />
      <path d="m 140.00024,88.704146 c -14.57119,-0.146727 -28.77435,8.438626 -35.41701,21.408444 -6.887844,12.80774 -5.907795,29.33375 2.44512,41.23782 8.1127,12.06896 23.18577,18.91468 37.61195,17.08339 12.76941,-1.39907 24.56534,-9.40876 30.57588,-20.76168 -6.24613,-2.54437 -12.49226,-5.08875 -18.73839,-7.63312 -4.58977,6.86513 -13.68643,10.24125 -21.64158,7.9871 -8.26921,-2.07565 -14.58304,-9.94716 -14.81805,-18.4691 -0.49978,-8.60374 5.25678,-17.06758 13.44756,-19.75545 8.10211,-2.942 17.85888,0.15517 22.77742,7.23362 0.61787,1.1324 1.20218,2.0566 2.45912,0.99798 5.66191,-2.46481 11.32382,-4.92962 16.98572,-7.39443 -6.45,-13.066693 -20.52456,-21.861287 -35.09633,-21.930195 -0.19712,-0.0029 -0.39427,-0.0044 -0.59141,-0.0044 z" />
    </g>
    <path d="M 101.5 30.667969 L 98.033203 37.257812 L 94.761719 31.113281 L 92.275391 37.621094 L 87.5 31.396484 L 86.910156 38.521484 L 81.185547 33.15625 L 80.580078 33.802734 L 87.640625 40.419922 L 88.191406 33.755859 L 92.537109 39.417969 L 94.894531 33.246094 L 98.037109 39.148438 L 101.41016 32.740234 L 103.91211 38.689453 L 108.17578 33.011719 L 109.89453 39.382812 L 114.08008 33.488281 L 115.03516 39.791016 L 122.90039 32.755859 L 122.31055 32.097656 L 115.66602 38.039062 L 114.62695 31.1875 L 110.26172 37.337891 L 108.55859 31.029297 L 104.13086 36.923828 L 101.5 30.667969 z " />
  </g>
</svg>
